<?xml version="1.0" encoding="UTF-8"?>
<svg id="Layer_1" data-name="Layer 1" xmlns="http://www.w3.org/2000/svg" viewBox="0 0 544.22 544.22">
  <defs>
    <style>
      .cls-1 {
        fill: #6548d8;
      }
    </style>
  </defs>
  <path class="cls-1" d="m225.41,251.59c0-14.31-11.51-25.83-25.83-25.87-14.38-.03-25.95,11.52-25.94,25.91.01,14.32,11.52,25.85,25.83,25.87,14.39.02,25.94-11.52,25.94-25.91Z"/>
  <path class="cls-1" d="m302.94,294.86c-7.89-10.19-18.75-15.51-31.64-15.99-14.7-.54-26.78,5.14-35.93,16.67-8.25,10.39-16.33,20.93-24.48,31.4-5.69,7.32-11.42,14.6-17.06,21.96-3.88,5.06-1.91,11.84,3.93,13.63,1.18.36,2.5.41,3.75.41,22.22,0,44.43-.04,66.65-.07h0c16.75-.03,33.49-.05,50.24-.07,6.07,0,12.14,0,18.21-.06,3.64-.03,6.5-1.54,8.1-4.88,1.52-3.16,1.09-6.24-1.01-9.04-13.55-18.01-26.95-36.14-40.75-53.97Z"/>
  <path class="cls-1" d="m272.11,0C2.1,0,0,121.83,0,272.11s2.1,272.11,272.11,272.11,272.11-121.83,272.11-272.11S542.12,0,272.11,0Zm137.52,363.16c-.05,23.22-15.68,41.81-38.51,45.87-2.59.46-5.27.59-7.91.6-60.81.03-121.62.05-182.43,0-22.61-.01-41.09-15.26-45.43-37.44-.59-3-.75-6.12-.76-9.18-.04-60.45-.03-120.9-.03-181.36,0-18.15,7.82-31.92,23.39-41.19,6.45-3.84,13.57-5.83,21.07-5.85,31.16-.09,93.47-.05,93.47-.05l.93.05h17.59c-5.76,12.32-8.81,25.86-8.82,39.87-.04,52.05,42.3,94.44,94.4,94.49h.08c11.56,0,22.64-2.1,32.88-5.94v7.67s.09,1.1.09,1.77c0,30.23.05,60.45,0,90.68Zm-.06-121.92c-9.93,4.94-21.1,7.73-32.9,7.73h-.06c-41.06-.04-74.45-33.44-74.41-74.47.01-14.36,4.08-28.09,11.64-39.91,2.92-4.56,6.33-8.84,10.26-12.76,14.03-13.98,32.61-21.67,52.36-21.67.07,0,.14,0,.2,0,19.9.05,38.6,7.84,52.65,21.93,14.04,14.08,21.75,32.75,21.69,52.57-.09,29.15-16.98,54.4-41.43,66.57Z"/>
  <path class="cls-1" d="m400.87,162.44h-12.14v-12.14c0-6.7-5.44-12.14-12.14-12.14s-12.14,5.44-12.14,12.14v12.14h-12.14c-6.7,0-12.14,5.44-12.14,12.14s5.44,12.14,12.14,12.14h12.14v12.14c0,6.7,5.44,12.14,12.14,12.14s12.14-5.44,12.14-12.14v-12.14h12.14c3.44,0,6.54-1.44,8.75-3.74,2.1-2.18,3.39-5.14,3.39-8.4s-1.29-6.2-3.38-8.38c-2.21-2.31-5.32-3.76-8.76-3.76Z"/>
  <path class="cls-1" d="m409.62,182.98c-2.21,2.3-5.31,3.74-8.75,3.74h-12.14v12.14c0,6.7-5.44,12.14-12.14,12.14s-12.14-5.44-12.14-12.14v-12.14h-12.14c-6.7,0-12.14-5.44-12.14-12.14s5.44-12.14,12.14-12.14h12.14v-12.14c0-6.7,5.44-12.14,12.14-12.14s12.14,5.44,12.14,12.14v12.14h12.14c3.45,0,6.55,1.45,8.76,3.76,2.09,2.18,3.38,5.13,3.38,8.38s-1.3,6.22-3.39,8.4Z"/>
</svg>